<?xml version="1.0" standalone="no"?>
<!DOCTYPE svg PUBLIC "-//W3C//DTD SVG 20010904//EN"
 "http://www.w3.org/TR/2001/REC-SVG-20010904/DTD/svg10.dtd">
<svg version="1.0" xmlns="http://www.w3.org/2000/svg"
 width="570.000000pt" height="570.000000pt" viewBox="0 0 570.000000 570.000000"
 preserveAspectRatio="xMidYMid meet">
<metadata>
Created by potrace 1.14, written by Peter Selinger 2001-2017
</metadata>
<g transform="translate(0.000000,570.000000) scale(0.100000,-0.100000)"
fill="#000000" stroke="none">
<path d="M4270 4434 c-19 -8 -37 -18 -40 -23 -3 -4 -24 -16 -47 -26 -24 -11
-43 -22 -43 -27 0 -4 -6 -8 -14 -8 -8 0 -21 -6 -28 -12 -7 -7 -33 -23 -58 -35
-25 -13 -76 -41 -115 -63 -38 -22 -94 -52 -122 -66 -29 -14 -55 -29 -58 -35
-4 -5 -32 -21 -63 -36 -31 -14 -59 -30 -62 -34 -3 -4 -32 -20 -65 -35 -33 -15
-62 -31 -65 -35 -25 -32 -49 -33 -780 -34 -775 0 -732 2 -844 -51 -49 -24
-136 -107 -161 -154 -28 -53 -46 -152 -46 -250 0 -64 -4 -102 -11 -107 -16 -9
-61 -9 -76 1 -7 4 -12 4 -12 -1 0 -4 -35 -8 -78 -7 -42 0 -83 -4 -91 -10 -8
-6 -17 -10 -20 -9 -11 5 -76 -20 -106 -40 -53 -35 -106 -91 -127 -132 -12 -22
-20 -42 -19 -44 2 -2 -2 -7 -8 -10 -9 -6 -21 -46 -23 -78 -1 -7 -4 -13 -7 -13
-3 0 -6 -284 -6 -630 0 -347 3 -630 7 -630 4 0 4 -10 -1 -22 -21 -57 32 -207
99 -282 43 -46 121 -99 174 -116 21 -7 96 -13 167 -14 121 -1 129 -2 130 -21
1 -11 3 -117 4 -235 1 -118 3 -220 4 -227 1 -12 44 5 91 37 25 17 164 94 207
114 13 6 23 15 23 19 0 5 4 6 8 3 5 -3 18 4 30 14 12 11 26 20 31 20 12 0 113
60 121 71 3 4 19 11 35 15 17 4 32 10 35 14 3 4 37 25 75 46 39 21 72 41 75
44 3 3 20 12 39 20 18 7 49 25 70 39 l36 26 710 1 c593 0 753 4 815 19 22 5
123 81 149 112 50 60 52 63 45 63 -4 0 1 9 10 19 10 11 19 28 21 38 2 10 4 18
5 18 6 0 11 58 13 163 1 74 6 123 12 123 5 1 60 3 120 4 61 2 121 5 135 8 46
9 55 12 60 17 3 3 27 16 53 30 99 52 136 101 196 265 10 27 7 1350 -4 1400
-24 118 -99 217 -205 270 -86 43 -114 49 -245 50 l-110 1 -5 241 -5 241 -35
-14z m-180 -501 c-1 -82 -1 -158 0 -170 0 -22 0 -22 198 -21 188 1 282 -6 282
-20 0 -4 13 -13 28 -20 18 -7 35 -28 47 -54 18 -41 19 -76 19 -698 -1 -607 -2
-659 -19 -703 -10 -26 -21 -47 -26 -47 -4 0 -21 -11 -37 -25 -16 -13 -32 -22
-35 -18 -4 3 -12 2 -19 -4 -10 -7 -156 -10 -213 -4 -7 1 -10 146 -10 439 0
240 -3 457 -7 482 -10 62 -29 120 -40 120 -4 0 -8 7 -8 15 0 7 -8 19 -17 24
-10 6 -14 11 -9 11 13 0 -35 50 -48 50 -6 0 -17 9 -24 21 -12 18 -85 58 -116
63 -6 1 -18 6 -26 11 -8 5 -78 10 -157 11 -78 1 -147 5 -153 9 -5 3 -10 2 -10
-2 0 -10 -41 -10 -58 1 -7 4 -12 4 -12 -1 0 -4 -16 -8 -35 -8 -19 0 -35 2 -35
6 0 3 -25 2 -55 -1 -30 -3 -55 -2 -55 3 0 4 -5 5 -12 1 -14 -9 -223 -8 -238 1
-5 3 -10 3 -10 -2 0 -9 -334 -8 -349 2 -6 3 -11 3 -11 -2 0 -4 -31 -8 -70 -8
-38 0 -70 4 -70 8 0 5 -5 5 -12 1 -7 -4 -24 -8 -38 -8 -14 0 -31 4 -38 8 -7 4
-12 4 -12 -1 0 -10 -273 -8 -289 1 -6 4 -11 4 -11 -1 0 -7 -94 -9 -110 -3 -3
2 -8 2 -12 1 -13 -2 -130 -3 -205 -2 l-72 1 1 116 c1 83 5 119 14 129 8 7 14
18 14 25 0 6 11 15 25 22 13 6 22 15 19 19 -2 4 15 13 38 20 48 13 497 19 505
6 2 -4 9 -4 15 -1 9 6 446 9 473 4 6 -1 15 -1 20 0 6 2 114 3 240 2 l230 0 58
29 c32 16 71 38 87 49 15 11 35 20 43 20 9 0 17 4 19 9 2 4 37 26 78 49 41 22
131 72 200 110 69 39 126 70 128 71 2 1 2 -65 2 -146z m-2443 -762 c9 -1 12
-105 12 -440 0 -554 1 -562 116 -687 28 -30 165 -113 165 -99 0 3 6 3 13 -2 6
-4 19 -9 27 -11 8 -1 479 -3 1045 -3 567 -1 1037 -3 1046 -5 14 -4 16 -20 14
-107 -1 -56 -5 -113 -9 -127 -10 -29 -82 -99 -105 -101 -9 -1 -347 -3 -752 -3
l-735 -2 -40 -24 c-41 -26 -77 -46 -213 -119 -44 -24 -81 -47 -81 -52 0 -5 -5
-9 -11 -9 -19 0 -94 -38 -116 -60 -13 -11 -23 -18 -23 -14 0 3 -7 1 -15 -6 -8
-7 -15 -10 -15 -7 0 4 -16 -5 -36 -18 -20 -14 -41 -25 -45 -25 -11 0 -11 0
-14 175 -1 77 -3 145 -4 150 0 6 -83 10 -226 9 -224 0 -225 0 -265 25 -22 15
-43 35 -46 46 -4 11 -12 23 -18 27 -7 5 -11 61 -12 163 -1 86 -4 159 -7 162
-3 3 -2 16 3 29 6 16 6 24 -1 24 -6 0 -6 8 2 21 7 14 8 24 1 31 -6 6 -7 20 -3
32 5 11 5 30 1 41 -4 11 -3 25 2 32 5 7 5 14 -1 17 -7 4 -7 15 -1 31 6 15 6
27 0 30 -6 4 -6 14 1 27 7 13 7 24 1 30 -6 6 -7 21 -2 38 5 18 4 32 -3 39 -7
7 -7 11 -1 11 11 0 12 35 2 46 -4 3 -3 16 2 29 5 14 5 26 -3 34 -6 6 -7 11 -1
11 5 0 10 9 10 20 0 11 -4 20 -9 20 -4 0 -5 5 -2 10 8 13 10 229 2 236 -3 3
-1 18 4 32 7 18 7 28 0 30 -6 2 -7 12 -1 28 6 15 6 24 0 24 -5 0 -7 6 -5 13 5
11 14 63 17 95 3 31 64 84 109 95 36 10 164 14 226 8z m747 -356 c61 -17 110
-96 104 -166 -5 -52 -47 -118 -80 -127 -10 -2 -18 -9 -18 -14 0 -5 -4 -7 -9
-3 -5 3 -12 2 -15 -3 -12 -19 -134 2 -143 24 -3 8 -9 11 -14 8 -5 -3 -9 2 -9
10 0 9 -4 16 -10 16 -17 0 -33 44 -35 95 -3 60 1 72 38 115 44 52 111 67 191
45z m668 -4 c33 -13 74 -73 83 -123 11 -59 -18 -132 -63 -160 -20 -12 -41 -23
-47 -23 -5 0 -14 -3 -20 -6 -43 -25 -151 25 -179 82 -19 38 -28 105 -17 124 3
6 6 17 8 25 1 8 7 16 12 18 6 2 11 8 11 14 0 14 27 35 64 52 32 15 107 13 148
-3z m637 5 c55 -13 110 -101 106 -167 -2 -22 -15 -55 -31 -78 -62 -87 -174
-101 -255 -33 -27 23 -57 91 -54 122 1 14 3 34 4 46 2 31 63 96 102 110 33 11
81 11 128 0z"/>
</g>
</svg>
